<?xml version="1.0" encoding="utf-8"?>
<!-- Generator: Adobe Illustrator 18.1.1, SVG Export Plug-In . SVG Version: 6.00 Build 0)  -->
<svg version="1.1" xmlns="http://www.w3.org/2000/svg" xmlns:xlink="http://www.w3.org/1999/xlink" x="0px" y="0px"
	 viewBox="0 0 453.5 283.5" enable-background="new 0 0 453.5 283.5" xml:space="preserve">
<g id="Layer_3">
	<path fill="#E6E7E8" stroke="#000000" stroke-miterlimit="10" d="M335.9,277.5H20.7c-6.6,0-12-5.4-12-12V29c0-6.6,5.4-12,12-12
		h315.3c6.6,0,12,5.4,12,12v236.5C347.9,272.1,342.5,277.5,335.9,277.5z"/>
	<path fill="#F1F2F2" stroke="#000000" stroke-miterlimit="10" d="M231.2,132.8h-196c-6.6,0-12-5.4-12-12V43.6c0-6.6,5.4-12,12-12
		h196c6.6,0,12,5.4,12,12v77.2C243.2,127.4,237.8,132.8,231.2,132.8z"/>
	<path fill="#F1F2F2" stroke="#000000" stroke-miterlimit="10" d="M231.2,263.5h-196c-6.6,0-12-5.4-12-12v-77.2c0-6.6,5.4-12,12-12
		h196c6.6,0,12,5.4,12,12v77.2C243.2,258.1,237.8,263.5,231.2,263.5z"/>
</g>
<g id="Layer_1">
	<path fill="#FFFFFF" stroke="#000000" stroke-miterlimit="10" d="M68.4,92.9h-29c-3.2,0-5.9-2.6-5.9-5.9V77c0-3.2,2.6-5.9,5.9-5.9
		h29c3.2,0,5.9,2.6,5.9,5.9v10C74.3,90.2,71.6,92.9,68.4,92.9z"/>
	<g>
		<g>
			<path fill="none" stroke="#000000" stroke-miterlimit="10" d="M70.5,61.9c0-5.4,4.4-9.8,9.8-9.8s9.8,4.4,9.8,9.8
				c0,4.1-2.5,7.5-6,9"/>
			<g>
				<polygon points="84.1,68.1 80.3,71.7 85.3,73.2 				"/>
			</g>
		</g>
	</g>
	<path fill="none" stroke="#000000" stroke-miterlimit="10" d="M70.5,65.1"/>
	<path fill="none" stroke="#000000" stroke-miterlimit="10" d="M80.3,74.8"/>
	<g>
		<g>
			<line fill="none" stroke="#000000" stroke-width="3" stroke-miterlimit="10" x1="80.3" y1="82" x2="125.2" y2="82"/>
			<g>
				<polygon points="123.4,88 133.8,82 123.4,76 				"/>
			</g>
		</g>
	</g>
	<rect x="139.5" y="74.7" fill="#FFFFFF" stroke="#000000" stroke-miterlimit="10" width="40.8" height="14.5"/>
	<rect x="139.5" y="60.2" fill="#FFFFFF" stroke="#000000" stroke-miterlimit="10" width="40.8" height="14.5"/>
	<rect x="139.5" y="89.2" fill="#FFFFFF" stroke="#000000" stroke-miterlimit="10" width="40.8" height="14.5"/>
	<g>
		<g>
			<path fill="none" stroke="#000000" stroke-width="3" stroke-miterlimit="10" d="M185.8,82c50.5,0,33.1,47.3,71.5,53.3"/>
			<g>
				<polygon points="255,140.9 265.9,135.9 256.1,129 				"/>
			</g>
		</g>
	</g>
	<g>
		<g>
			<path fill="none" stroke="#000000" stroke-miterlimit="10" d="M212.5,77.7c0-5.4,4.4-9.8,9.8-9.8c5.4,0,9.8,4.4,9.8,9.8
				c0,4.1-2.5,7.5-6,9"/>
			<g>
				<polygon points="226.1,83.9 222.3,87.5 227.3,89 				"/>
			</g>
		</g>
	</g>
	<path fill="#FFFFFF" stroke="#000000" stroke-miterlimit="10" d="M68.4,223.5h-29c-3.2,0-5.9-2.6-5.9-5.9v-10
		c0-3.2,2.6-5.9,5.9-5.9h29c3.2,0,5.9,2.6,5.9,5.9v10C74.3,220.8,71.6,223.5,68.4,223.5z"/>
	<g>
		<g>
			<path fill="none" stroke="#000000" stroke-miterlimit="10" d="M71,191.7c0-5.4,4.4-9.8,9.8-9.8s9.8,4.4,9.8,9.8
				c0,4.1-2.5,7.5-6,9"/>
			<g>
				<polygon points="84.6,197.9 80.8,201.5 85.8,203 				"/>
			</g>
		</g>
	</g>
	<path fill="none" stroke="#000000" stroke-miterlimit="10" d="M70.5,195.7"/>
	<path fill="none" stroke="#000000" stroke-miterlimit="10" d="M80.3,205.5"/>
	<g>
		<g>
			<line fill="none" stroke="#000000" stroke-width="3" stroke-miterlimit="10" x1="80.3" y1="212.6" x2="125.2" y2="212.6"/>
			<g>
				<polygon points="123.4,218.6 133.8,212.6 123.4,206.6 				"/>
			</g>
		</g>
	</g>
	<g>
		<g>
			<path fill="none" stroke="#000000" stroke-miterlimit="10" d="M212.5,219.9c0-5.4,4.4-9.8,9.8-9.8c5.4,0,9.8,4.4,9.8,9.8
				c0,4.1-2.5,7.5-6,9"/>
			<g>
				<polygon points="226.1,226 222.3,229.6 227.3,231.1 				"/>
			</g>
		</g>
	</g>
	<rect x="139.5" y="190.8" fill="#FFFFFF" stroke="#000000" stroke-miterlimit="10" width="40.8" height="14.5"/>
	<rect x="139.5" y="219.9" fill="#FFFFFF" stroke="#000000" stroke-miterlimit="10" width="40.8" height="14.5"/>
	<rect x="139.5" y="205.3" fill="#FFFFFF" stroke="#000000" stroke-miterlimit="10" width="40.8" height="14.5"/>
	<rect x="272.4" y="125.5" fill="#FFFFFF" stroke="#000000" stroke-miterlimit="10" width="40.8" height="14.5"/>
	<rect x="272.4" y="154.5" fill="#FFFFFF" stroke="#000000" stroke-miterlimit="10" width="40.8" height="14.5"/>
	<rect x="272.4" y="140" fill="#FFFFFF" stroke="#000000" stroke-miterlimit="10" width="40.8" height="14.5"/>
	<rect x="272.4" y="169.1" fill="#FFFFFF" stroke="#000000" stroke-miterlimit="10" width="40.8" height="14.5"/>
	<rect x="272.4" y="111" fill="#FFFFFF" stroke="#000000" stroke-miterlimit="10" width="40.8" height="14.5"/>
	<g>
		<g>
			<path fill="none" stroke="#000000" stroke-width="3" stroke-miterlimit="10" d="M185.8,212.9c50.5,0,33.1-47.3,71.5-53.3"/>
			<g>
				<polygon points="256.1,165.9 265.9,159 255,154 				"/>
			</g>
		</g>
	</g>
	<path fill="#FFFFFF" stroke="#000000" stroke-miterlimit="10" d="M432.9,140h-44c-6.6,0-12-5.4-12-12v-19.5c0-6.6,5.4-12,12-12h44
		c6.6,0,12,5.4,12,12V128C444.9,134.6,439.5,140,432.9,140z"/>
	<text transform="matrix(1 0 0 1 379.9204 120.7628)" font-family="'OpenSans'" font-size="8.257">WaitNotification</text>
	<g>
		<g>
			<polyline fill="none" stroke="#000000" stroke-width="3" stroke-miterlimit="10" points="363.2,176.3 318.3,176.3 318.3,118.3 
				371.8,118.3 			"/>
			<g>
				<polygon points="361.4,170.3 371.8,176.3 361.4,182.3 				"/>
			</g>
		</g>
	</g>
	<text transform="matrix(1 0 0 1 49.2278 46.1715)" font-family="'OpenSans'" font-size="8.257">Monitor Interval</text>
	<text transform="matrix(1 0 0 1 49.2278 176.9127)" font-family="'OpenSans'" font-size="8.257">Monitor Interval</text>
	<text transform="matrix(1 0 0 1 135.2995 45.6716)"><tspan x="0" y="0" font-family="'OpenSans'" font-size="8.257">Notifications</tspan><tspan x="11.4" y="9.9" font-family="'OpenSans'" font-size="8.257">Queue</tspan></text>
	<text transform="matrix(1 0 0 1 135.2995 176.6127)"><tspan x="0" y="0" font-family="'OpenSans'" font-size="8.257">Notifications</tspan><tspan x="11.4" y="9.9" font-family="'OpenSans'" font-size="8.257">Queue</tspan></text>
	<text transform="matrix(1 0 0 1 208.147 242.3382)"><tspan x="0" y="0" font-family="'OpenSans'" font-size="8.257">Publish</tspan><tspan x="-0.4" y="9.9" font-family="'OpenSans'" font-size="8.257">Interval</tspan></text>
	<text transform="matrix(1 0 0 1 208.1468 52.1802)"><tspan x="0" y="0" font-family="'OpenSans'" font-size="8.257">Publish</tspan><tspan x="-0.4" y="9.9" font-family="'OpenSans'" font-size="8.257">Interval</tspan></text>
	<text transform="matrix(1 0 0 1 268.4771 96.4941)"><tspan x="0" y="0" font-family="'OpenSans'" font-size="8.257">Notifications</tspan><tspan x="11.4" y="9.9" font-family="'OpenSans'" font-size="8.257">Queue</tspan></text>
	<text transform="matrix(1 0 0 1 137.0205 12.3382)" font-family="'OpenSans'" font-size="8.257">Subscription Channel</text>
	<text transform="matrix(1 0 0 1 105.3199 27.3715)" font-family="'OpenSans'" font-size="8.257">Subscription</text>
	<text transform="matrix(1 0 0 1 105.3199 158.3985)" font-family="'OpenSans'" font-size="8.257">Subscription</text>
	<path fill="#FFFFFF" stroke="#000000" stroke-miterlimit="10" d="M432.9,198.1h-44c-6.6,0-12-5.4-12-12v-19.5c0-6.6,5.4-12,12-12
		h44c6.6,0,12,5.4,12,12v19.5C444.9,192.7,439.5,198.1,432.9,198.1z"/>
	<text transform="matrix(1 0 0 1 386.5708 175.2127)"><tspan x="0" y="0" font-family="'OpenSans'" font-size="8.257">Notifications</tspan><tspan x="-0.4" y="9.9" font-family="'OpenSans'" font-size="8.257">sent to client</tspan></text>
	<text transform="matrix(1 0 0 1 37.1776 79.9149)"><tspan x="0" y="0" font-family="'OpenSans'" font-size="8.257">Property</tspan><tspan x="6.5" y="9.9" font-family="'OpenSans'" font-size="8.257">value</tspan></text>
	<text transform="matrix(1 0 0 1 37.1776 210.4999)"><tspan x="0" y="0" font-family="'OpenSans'" font-size="8.257">Property</tspan><tspan x="6.5" y="9.9" font-family="'OpenSans'" font-size="8.257">value</tspan></text>
</g>
</svg>
